<svg width="32" height="32" viewBox="0 0 32 32" fill="none" xmlns="http://www.w3.org/2000/svg">
<path d="M3.83335 28.625C3.03127 28.625 2.34464 28.3394 1.77346 27.7682C1.20228 27.197 0.916687 26.5104 0.916687 25.7083V9.66663C0.916687 8.86454 1.20228 8.17791 1.77346 7.60673C2.34464 7.03555 3.03127 6.74996 3.83335 6.74996H9.66669V3.83329C9.66669 3.03121 9.95228 2.34458 10.5235 1.7734C11.0946 1.20222 11.7813 0.916626 12.5834 0.916626H18.4167C19.2188 0.916626 19.9054 1.20222 20.4766 1.7734C21.0478 2.34458 21.3334 3.03121 21.3334 3.83329V6.74996H27.1667C27.9688 6.74996 28.6554 7.03555 29.2266 7.60673C29.7978 8.17791 30.0834 8.86454 30.0834 9.66663V15.901C29.6459 15.585 29.184 15.3116 28.6979 15.0807C28.2118 14.8498 27.7014 14.6493 27.1667 14.4791V9.66663H3.83335V25.7083H14.1511C14.224 26.2187 14.3334 26.717 14.4792 27.2031C14.625 27.6892 14.8073 28.1632 15.0261 28.625H3.83335ZM12.5834 6.74996H18.4167V3.83329H12.5834V6.74996ZM24.25 31.5416C22.2327 31.5416 20.513 30.8307 19.0912 29.4088C17.6693 27.9869 16.9584 26.2673 16.9584 24.25C16.9584 22.2326 17.6693 20.513 19.0912 19.0911C20.513 17.6692 22.2327 16.9583 24.25 16.9583C26.2674 16.9583 27.987 17.6692 29.4089 19.0911C30.8307 20.513 31.5417 22.2326 31.5417 24.25C31.5417 26.2673 30.8307 27.9869 29.4089 29.4088C27.987 30.8307 26.2674 31.5416 24.25 31.5416ZM24.9792 23.9583V19.875H23.5209V24.5416L26.6563 27.677L27.6771 26.6562L24.9792 23.9583Z" fill="#F5F5F5"/>
</svg>
