<svg width="27" height="30" viewBox="0 0 27 30" fill="none" xmlns="http://www.w3.org/2000/svg">
<path d="M7 15V12H20V15H7ZM7 9V6H20V9H7ZM3.75 18H15.9375C16.7229 18 17.4542 18.1562 18.1312 18.4688C18.8083 18.7812 19.3771 19.225 19.8375 19.8L23.25 23.925V3H3.75V18ZM3.75 27H21.7062L17.2781 21.6375C17.1156 21.4375 16.9193 21.2812 16.6891 21.1688C16.4589 21.0563 16.2083 21 15.9375 21H3.75V27ZM23.25 30H3.75C2.85625 30 2.09115 29.7063 1.45469 29.1188C0.818229 28.5313 0.5 27.825 0.5 27V3C0.5 2.175 0.818229 1.46875 1.45469 0.88125C2.09115 0.29375 2.85625 0 3.75 0H23.25C24.1437 0 24.9089 0.29375 25.5453 0.88125C26.1818 1.46875 26.5 2.175 26.5 3V27C26.5 27.825 26.1818 28.5313 25.5453 29.1188C24.9089 29.7063 24.1437 30 23.25 30Z" fill="#3E4F89"/>
</svg>
