<svg width="31" height="34" viewBox="0 0 31 34" fill="none" xmlns="http://www.w3.org/2000/svg">
<path d="M10.25 22.6667L15.5 19.1667L20.6562 22.6667L18.6875 17L23.9375 13.3333H17.5625L15.5 7.66667L13.4375 13.3333H7.0625L12.2188 17L10.25 22.6667ZM15.5 33.3333C11.1562 32.3611 7.57031 30.1458 4.74219 26.6875C1.91406 23.2292 0.5 19.3889 0.5 15.1667V5L15.5 0L30.5 5V15.1667C30.5 19.3889 29.0859 23.2292 26.2578 26.6875C23.4297 30.1458 19.8438 32.3611 15.5 33.3333ZM15.5 29.8333C18.75 28.9167 21.4375 27.0833 23.5625 24.3333C25.6875 21.5833 26.75 18.5278 26.75 15.1667V7.29167L15.5 3.54167L4.25 7.29167V15.1667C4.25 18.5278 5.3125 21.5833 7.4375 24.3333C9.5625 27.0833 12.25 28.9167 15.5 29.8333Z" fill="#3E4F89"/>
</svg>
