<svg width="30" height="27" viewBox="0 0 30 27" fill="none" xmlns="http://www.w3.org/2000/svg">
<path d="M15 21C12.9722 21 11.2014 20.4313 9.6875 19.2938C8.17361 18.1563 7.22222 16.725 6.83333 15H9.41667C9.77778 16.1 10.4653 17 11.4792 17.7C12.4931 18.4 13.6667 18.75 15 18.75C16.6111 18.75 17.9861 18.2375 19.125 17.2125C20.2639 16.1875 20.8333 14.95 20.8333 13.5C20.8333 12.05 20.2639 10.8125 19.125 9.7875C17.9861 8.7625 16.6111 8.25 15 8.25C14.1944 8.25 13.4444 8.38125 12.75 8.64375C12.0556 8.90625 11.4444 9.275 10.9167 9.75H13.3333V12H6.66667V6H9.16667V8.1375C9.91667 7.4875 10.7917 6.96875 11.7917 6.58125C12.7917 6.19375 13.8611 6 15 6C17.3056 6 19.2708 6.73125 20.8958 8.19375C22.5208 9.65625 23.3333 11.425 23.3333 13.5C23.3333 15.575 22.5208 17.3438 20.8958 18.8063C19.2708 20.2688 17.3056 21 15 21ZM3.33333 27C2.41667 27 1.63194 26.7063 0.979167 26.1188C0.326389 25.5313 0 24.825 0 24V18H3.33333V24H10V27H3.33333ZM20 27V24H26.6667V18H30V24C30 24.825 29.6736 25.5313 29.0208 26.1188C28.3681 26.7063 27.5833 27 26.6667 27H20ZM0 9V3C0 2.175 0.326389 1.46875 0.979167 0.88125C1.63194 0.29375 2.41667 0 3.33333 0H10V3H3.33333V9H0ZM26.6667 9V3H20V0H26.6667C27.5833 0 28.3681 0.29375 29.0208 0.88125C29.6736 1.46875 30 2.175 30 3V9H26.6667Z" fill="#3E4F89"/>
</svg>
