<svg width="21" height="33" viewBox="0 0 21 33" fill="none" xmlns="http://www.w3.org/2000/svg">
<path d="M10.5 23.7917C10.0868 23.7917 9.74044 23.6519 9.46093 23.3724C9.18141 23.0929 9.04166 22.7466 9.04166 22.3334C9.04166 21.9202 9.18141 21.5738 9.46093 21.2943C9.74044 21.0148 10.0868 20.875 10.5 20.875C10.9132 20.875 11.2595 21.0148 11.5391 21.2943C11.8186 21.5738 11.9583 21.9202 11.9583 22.3334C11.9583 22.7466 11.8186 23.0929 11.5391 23.3724C11.2595 23.6519 10.9132 23.7917 10.5 23.7917ZM9.04166 17.9584V9.20837H11.9583V17.9584H9.04166ZM3.20832 32.5417C2.40624 32.5417 1.71961 32.2561 1.14843 31.6849C0.577247 31.1138 0.291656 30.4271 0.291656 29.625V3.37504C0.291656 2.57296 0.577247 1.88633 1.14843 1.31514C1.71961 0.743964 2.40624 0.458374 3.20832 0.458374H17.7917C18.5937 0.458374 19.2804 0.743964 19.8516 1.31514C20.4227 1.88633 20.7083 2.57296 20.7083 3.37504V29.625C20.7083 30.4271 20.4227 31.1138 19.8516 31.6849C19.2804 32.2561 18.5937 32.5417 17.7917 32.5417H3.20832ZM3.20832 28.1667V29.625H17.7917V28.1667H3.20832ZM3.20832 25.25H17.7917V7.75004H3.20832V25.25ZM3.20832 4.83337H17.7917V3.37504H3.20832V4.83337Z" fill="#F5F5F5"/>
</svg>
