<svg width="31" height="25" viewBox="0 0 31 25" fill="none" xmlns="http://www.w3.org/2000/svg">
<path d="M0.916687 24.1667V20.0834C0.916687 19.2813 1.12328 18.5278 1.53648 17.823C1.94967 17.1181 2.52085 16.5834 3.25002 16.2188C4.4896 15.5868 5.88717 15.0521 7.44273 14.6146C8.99828 14.1771 10.7118 13.9584 12.5834 13.9584C13.3125 13.9584 14.0235 13.9948 14.7162 14.0677C15.4089 14.1407 16.0834 14.25 16.7396 14.3959L14.1875 16.948C13.9202 16.8993 13.6589 16.875 13.4037 16.875H12.5834C10.8577 16.875 9.30818 17.0816 7.93492 17.4948C6.56165 17.908 5.43752 18.3577 4.56252 18.8438C4.34377 18.9653 4.16755 19.1355 4.03387 19.3542C3.90019 19.573 3.83335 19.816 3.83335 20.0834V21.25H12.9479L15.8646 24.1667H0.916687ZM20.6771 24.75L15.6459 19.7188L17.6875 17.6771L20.6771 20.6667L28.0417 13.3021L30.0834 15.3438L20.6771 24.75ZM12.5834 12.5C10.9792 12.5 9.60592 11.9289 8.46356 10.7865C7.3212 9.64414 6.75002 8.27087 6.75002 6.66671C6.75002 5.06254 7.3212 3.68928 8.46356 2.54692C9.60592 1.40455 10.9792 0.833374 12.5834 0.833374C14.1875 0.833374 15.5608 1.40455 16.7031 2.54692C17.8455 3.68928 18.4167 5.06254 18.4167 6.66671C18.4167 8.27087 17.8455 9.64414 16.7031 10.7865C15.5608 11.9289 14.1875 12.5 12.5834 12.5ZM12.5834 9.58337C13.3854 9.58337 14.0721 9.29778 14.6432 8.7266C15.2144 8.15542 15.5 7.46879 15.5 6.66671C15.5 5.86462 15.2144 5.17799 14.6432 4.60681C14.0721 4.03563 13.3854 3.75004 12.5834 3.75004C11.7813 3.75004 11.0946 4.03563 10.5235 4.60681C9.95228 5.17799 9.66669 5.86462 9.66669 6.66671C9.66669 7.46879 9.95228 8.15542 10.5235 8.7266C11.0946 9.29778 11.7813 9.58337 12.5834 9.58337Z" fill="#F5F5F5"/>
</svg>
